# xmcd CD database file
#
# Track frame offsets:
#	150
#	10610
#	20836
#	28651
#	49955
#	63978
#	78331
#	91013
#	106521
#	119615
#	137900
#
# Disc length: 2154 seconds
#
# Revision: 0
# Processed by: cddbd v1.5.2PL0 Copyright (c) Steve Scherf et al.
# Submitted via: CDex 1.51
#
DISCID=8508680b
DTITLE=Gail Davies - I'll Be There
DYEAR=1980
DGENRE=Country
TTITLE0=I'll Be There
TTITLE1=It's a Lovely Lovely World
TTITLE2=Mama's Gonna Give You Sweet Thing
TTITLE3=Kentucky
TTITLE4=Honky Tonk Waltz
TTITLE5=Farewell Song
TTITLE6=Object of My Affection
TTITLE7=Get That Feeling Inside
TTITLE8=I'm Hungry I'm Tired
TTITLE9=Grandma's Song
TTITLE10=No One to Welcome Me Home
EXTD=YEAR: 1980
EXTT0=
EXTT1=
EXTT2=
EXTT3=
EXTT4=
EXTT5=
EXTT6=
EXTT7=
EXTT8=
EXTT9=
EXTT10=
PLAYORDER=
